<svg width="19" height="22" viewBox="0 0 19 22" fill="none" xmlns="http://www.w3.org/2000/svg">
<path d="M15.5331 11.6879C15.5641 15.0172 18.4678 16.1251 18.5 16.1393C18.4754 16.2174 18.036 17.7181 16.9702 19.2683C16.0488 20.6085 15.0925 21.9438 13.5861 21.9714C12.1059 21.9985 11.63 21.0979 9.93767 21.0979C8.2459 21.0979 7.71708 21.9437 6.31591 21.9985C4.86184 22.0533 3.75458 20.5493 2.82554 19.214C0.927169 16.4827 -0.523582 11.4959 1.42441 8.12967C2.39213 6.45801 4.12152 5.39945 5.99862 5.3723C7.42648 5.3452 8.77421 6.3283 9.64707 6.3283C10.5194 6.3283 12.1572 5.14603 13.8789 5.31966C14.5997 5.34952 16.6229 5.60942 17.9221 7.50192C17.8174 7.56651 15.5079 8.9045 15.5331 11.6879V11.6879ZM12.7512 3.51263C13.5232 2.58268 14.0427 1.2881 13.901 0C12.7883 0.0445073 11.4427 0.737937 10.6446 1.66738C9.92926 2.49044 9.30283 3.8078 9.47185 5.07041C10.7121 5.16591 11.9792 4.44317 12.7512 3.51263" fill="white"/>
</svg>
