<svg width="14" height="15" viewBox="0 0 14 15" fill="none" xmlns="http://www.w3.org/2000/svg">
<path fill-rule="evenodd" clip-rule="evenodd" d="M9.52898 0.625C9.80498 0.625 10.029 0.835 10.029 1.09375L10.0293 1.62363C11.0027 1.6862 11.8111 1.99878 12.3833 2.53631C13.008 3.12444 13.3366 3.97006 13.3333 4.98444V10.6863C13.3333 12.7688 11.9226 14.0626 9.65265 14.0626H4.01398C1.74398 14.0626 0.333313 12.7507 0.333313 10.6388V4.98319C0.333313 3.01893 1.59135 1.75809 3.6431 1.62385L3.64351 1.09375C3.64351 0.835 3.86751 0.625 4.14351 0.625C4.41951 0.625 4.64351 0.835 4.64351 1.09375L4.64331 1.61187H9.02865L9.02898 1.09375C9.02898 0.835 9.25298 0.625 9.52898 0.625ZM12.3333 6.19H1.33331V10.6388C1.33331 12.2426 2.28531 13.1251 4.01398 13.1251H9.65265C11.3813 13.1251 12.3333 12.2588 12.3333 10.6863L12.3333 6.19ZM9.80078 10.1227C10.0768 10.1227 10.3008 10.3327 10.3008 10.5914C10.3008 10.8502 10.0768 11.0602 9.80078 11.0602C9.52478 11.0602 9.29811 10.8502 9.29811 10.5914C9.29811 10.3327 9.51878 10.1227 9.79478 10.1227H9.80078ZM6.84245 10.1227C7.11845 10.1227 7.34245 10.3327 7.34245 10.5914C7.34245 10.8502 7.11845 11.0602 6.84245 11.0602C6.56645 11.0602 6.33978 10.8502 6.33978 10.5914C6.33978 10.3327 6.56045 10.1227 6.83645 10.1227H6.84245ZM3.87791 10.1227C4.15391 10.1227 4.37791 10.3327 4.37791 10.5914C4.37791 10.8502 4.15391 11.0602 3.87791 11.0602C3.60191 11.0602 3.37458 10.8502 3.37458 10.5914C3.37458 10.3327 3.59591 10.1227 3.87191 10.1227H3.87791ZM9.80078 7.6935C10.0768 7.6935 10.3008 7.9035 10.3008 8.16225C10.3008 8.421 10.0768 8.631 9.80078 8.631C9.52478 8.631 9.29811 8.421 9.29811 8.16225C9.29811 7.9035 9.51878 7.6935 9.79478 7.6935H9.80078ZM6.84245 7.6935C7.11845 7.6935 7.34245 7.9035 7.34245 8.16225C7.34245 8.421 7.11845 8.631 6.84245 8.631C6.56645 8.631 6.33978 8.421 6.33978 8.16225C6.33978 7.9035 6.56045 7.6935 6.83645 7.6935H6.84245ZM3.87791 7.6935C4.15391 7.6935 4.37791 7.9035 4.37791 8.16225C4.37791 8.421 4.15391 8.631 3.87791 8.631C3.60191 8.631 3.37458 8.421 3.37458 8.16225C3.37458 7.9035 3.59591 7.6935 3.87191 7.6935H3.87791ZM9.02865 2.54938H4.64331L4.64351 3.15062C4.64351 3.40937 4.41951 3.61937 4.14351 3.61937C3.86751 3.61937 3.64351 3.40937 3.64351 3.15062L3.64316 2.56356C2.14967 2.68118 1.33331 3.52991 1.33331 4.98319V5.2525H12.3333L12.3333 4.98319C12.336 4.21131 12.1146 3.61131 11.6753 3.19881C11.2897 2.83619 10.7259 2.61963 10.0295 2.56386L10.029 3.15062C10.029 3.40937 9.80498 3.61937 9.52898 3.61937C9.25298 3.61937 9.02898 3.40937 9.02898 3.15062L9.02865 2.54938Z" fill="white"/>
</svg>
