<svg width="25" height="24" viewBox="0 0 25 24" fill="none" xmlns="http://www.w3.org/2000/svg">
<path d="M12.5 23.9999C19.1274 23.9999 24.5 18.6273 24.5 11.9999C24.5 5.37256 19.1274 0 12.5 0C5.87258 0 0.5 5.37256 0.5 11.9999C0.5 18.6273 5.87258 23.9999 12.5 23.9999Z" fill="#1977F3"/>
<path d="M17.171 15.4696L17.7026 12H14.3748V9.74886C14.3748 8.80047 14.8388 7.87402 16.3306 7.87402H17.8443V4.92085C17.8443 4.92085 16.4707 4.68628 15.1578 4.68628C12.4172 4.68628 10.6251 6.34681 10.6251 9.35567V12H7.57739V15.4696H10.6251V23.8549C11.236 23.9511 11.862 24 12.4999 24C13.1378 24 13.7639 23.9494 14.3748 23.8549V15.4696H17.171Z" fill="white"/>
</svg>
