<svg width="25" height="24" viewBox="0 0 25 24" fill="none" xmlns="http://www.w3.org/2000/svg">
<path d="M6.93242 14.086L6.23625 16.6849L3.69176 16.7387C2.93133 15.3283 2.5 13.7146 2.5 11.9998C2.5 10.3416 2.90328 8.77781 3.61813 7.40091H3.61867L5.88399 7.81622L6.87633 10.0679C6.66863 10.6734 6.55543 11.3234 6.55543 11.9998C6.55551 12.7338 6.68848 13.4372 6.93242 14.086Z" fill="#FBBB00"/>
<path d="M22.3254 10.1319C22.4403 10.7368 22.5001 11.3615 22.5001 12C22.5001 12.7159 22.4249 13.4143 22.2815 14.0879C21.7947 16.3802 20.5227 18.3818 18.7606 19.7983L18.7601 19.7977L15.9068 19.6521L15.5029 17.1313C16.6722 16.4456 17.5859 15.3725 18.0672 14.0879H12.72V10.1319H18.1452H22.3254Z" fill="#518EF8"/>
<path d="M18.76 19.7978L18.7606 19.7984C17.0469 21.1758 14.8699 22 12.5001 22C8.6919 22 5.38092 19.8714 3.69189 16.739L6.93256 14.0863C7.77705 16.3401 9.95123 17.9445 12.5001 17.9445C13.5957 17.9445 14.6221 17.6484 15.5029 17.1313L18.76 19.7978Z" fill="#28B446"/>
<path d="M18.883 4.30217L15.6434 6.95434C14.7319 6.38458 13.6544 6.05544 12.5 6.05544C9.89344 6.05544 7.6786 7.73343 6.87641 10.0681L3.61871 7.40105H3.61816C5.28246 4.19229 8.6352 2 12.5 2C14.9264 2 17.1511 2.86429 18.883 4.30217Z" fill="#F14336"/>
</svg>
