<svg width="24" height="20" viewBox="0 0 24 20" fill="none" xmlns="http://www.w3.org/2000/svg">
<path d="M8.125 1.33334V3.50001" stroke="#1C2D57" stroke-width="1.3" stroke-miterlimit="10" stroke-linecap="round" stroke-linejoin="round"/>
<path d="M8.125 7.83334L8.125 12.1667" stroke="#1C2D57" stroke-width="1.3" stroke-miterlimit="10" stroke-linecap="round" stroke-linejoin="round"/>
<path d="M8.125 16.5V18.6667" stroke="#1C2D57" stroke-width="1.3" stroke-miterlimit="10" stroke-linecap="round" stroke-linejoin="round"/>
<path d="M20.404 10.0701C20.404 8.55307 21.4466 7.28887 22.75 6.90961V3.11701C22.75 2.10565 21.968 1.34713 20.9253 1.34713H3.1997C2.15701 1.22071 1.375 1.97923 1.375 2.99059V6.78319C2.80869 7.28887 3.72104 8.42665 3.72104 9.94369C3.72104 11.4607 2.67835 12.7249 1.375 13.1042V16.8968C1.375 17.9082 2.15701 18.6667 3.1997 18.6667H20.9253C21.968 18.6667 22.75 17.9082 22.75 16.8968V13.1042C21.3163 12.7249 20.404 11.4607 20.404 10.0701Z" stroke="#1C2D57" stroke-width="1.3" stroke-miterlimit="10" stroke-linecap="round" stroke-linejoin="round"/>
</svg>
