<svg width="25" height="28" viewBox="0 0 25 28" fill="none" xmlns="http://www.w3.org/2000/svg">
<path d="M14.75 21.8889H21L19.2437 20.0936C19.0079 19.8525 18.8208 19.5662 18.6932 19.2511C18.5656 18.9361 18.4999 18.5984 18.5 18.2574V14.2222C18.5002 12.6364 18.0195 11.0895 17.124 9.79458C16.2286 8.49961 14.9625 7.52023 13.5 6.99128V6.55556C13.5 5.87778 13.2366 5.22776 12.7678 4.7485C12.2989 4.26925 11.663 4 11 4C10.337 4 9.70107 4.26925 9.23223 4.7485C8.76339 5.22776 8.5 5.87778 8.5 6.55556V6.99128C5.5875 8.04417 3.5 10.8847 3.5 14.2222V18.2587C3.5 18.9462 3.2325 19.6068 2.75625 20.0936L1 21.8889H7.25M14.75 21.8889H7.25M14.75 21.8889V23.1667C14.75 24.1833 14.3549 25.1584 13.6517 25.8772C12.9484 26.5961 11.9946 27 11 27C10.0054 27 9.05161 26.5961 8.34835 25.8772C7.64509 25.1584 7.25 24.1833 7.25 23.1667V21.8889" stroke="#565643" stroke-width="2" stroke-linecap="round" stroke-linejoin="round"/>
<circle cx="20" cy="5" r="5" fill="#F8C303"/>
<path d="M18.276 6.088V5.572L20.292 2.68H21.12V5.494H21.678V6.088H21.12V7H20.448V6.088H18.276ZM20.478 3.376L19.062 5.494H20.478V3.376Z" fill="white"/>
</svg>
