<svg width="20" height="20" viewBox="0 0 20 20" fill="none" xmlns="http://www.w3.org/2000/svg">
<path d="M12.9873 9.08L9.58044 6.72417C9.4198 6.61303 9.23306 6.54925 9.04017 6.53964C8.84728 6.53002 8.6555 6.57493 8.48532 6.66958C8.31514 6.76422 8.17296 6.90503 8.07398 7.07696C7.97499 7.2489 7.92293 7.44549 7.92334 7.64572V12.3563C7.92331 12.5563 7.97566 12.7526 8.0748 12.9243C8.17394 13.0959 8.31615 13.2364 8.48626 13.3307C8.65637 13.4251 8.848 13.4698 9.0407 13.4601C9.2334 13.4504 9.41995 13.3867 9.58044 13.2756L12.9873 10.9198C13.1333 10.8189 13.253 10.6822 13.3357 10.5218C13.4185 10.3614 13.4618 10.1823 13.4618 10.0005C13.4618 9.81856 13.4185 9.63948 13.3357 9.4791C13.253 9.31872 13.1333 9.18201 12.9873 9.0811V9.08Z" stroke="#F8C303" stroke-width="1.3" stroke-linecap="round" stroke-linejoin="round"/>
<path d="M19 10C19 11.1819 18.7672 12.3522 18.3149 13.4442C17.8626 14.5361 17.1997 15.5282 16.364 16.364C15.5282 17.1997 14.5361 17.8626 13.4442 18.3149C12.3522 18.7672 11.1819 19 10 19C8.8181 19 7.64778 18.7672 6.55585 18.3149C5.46392 17.8626 4.47177 17.1997 3.63604 16.364C2.80031 15.5282 2.13738 14.5361 1.68508 13.4442C1.23279 12.3522 1 11.1819 1 10C1 7.61305 1.94821 5.32387 3.63604 3.63604C5.32387 1.94821 7.61305 1 10 1C12.3869 1 14.6761 1.94821 16.364 3.63604C18.0518 5.32387 19 7.61305 19 10Z" stroke="#F8C303" stroke-width="1.3" stroke-linecap="round" stroke-linejoin="round"/>
</svg>
