<svg width="22" height="22" viewBox="0 0 22 22" fill="none" xmlns="http://www.w3.org/2000/svg">
<path d="M7.03125 21.875H2.34375C1.0498 21.875 0 20.8252 0 19.5312V2.34375C0 1.0498 1.0498 0 2.34375 0H7.03125C8.3252 0 9.375 1.0498 9.375 2.34375V19.5312C9.375 20.8252 8.3252 21.875 7.03125 21.875ZM21.875 19.5312V2.34375C21.875 1.0498 20.8252 0 19.5312 0H14.8438C13.5498 0 12.5 1.0498 12.5 2.34375V19.5312C12.5 20.8252 13.5498 21.875 14.8438 21.875H19.5312C20.8252 21.875 21.875 20.8252 21.875 19.5312Z" fill="#FDD100"/>
</svg>
