<svg width="31" height="29" viewBox="0 0 31 29" fill="none" xmlns="http://www.w3.org/2000/svg">
<path d="M0.806641 11.9254C0.806641 10.9098 1.32048 9.96316 2.1721 9.40981L14.4101 1.45804C15.0728 1.02747 15.9269 1.02747 16.5895 1.45804L28.8275 9.4098C29.6792 9.96315 30.193 10.9098 30.193 11.9254V26.25C30.193 27.3546 29.2976 28.25 28.193 28.25H2.80664C1.70207 28.25 0.806641 27.3546 0.806641 26.25V11.9254Z" stroke="#FDD100" stroke-width="1.5" stroke-linejoin="round"/>
<path d="M10.5947 21.9055C10.5947 19.1964 12.7909 17.0002 15.5 17.0002V17.0002C18.2092 17.0002 20.4053 19.1964 20.4053 21.9055V28.2502H10.5947V21.9055Z" stroke="#FDD100" stroke-width="1.5" stroke-linejoin="round"/>
<path d="M12.4165 11.2854H18.5832" stroke="#FDD100" stroke-width="1.5" stroke-linecap="round" stroke-linejoin="round"/>
</svg>
