<svg width="35" height="39" viewBox="0 0 35 39" fill="none" xmlns="http://www.w3.org/2000/svg">
<path d="M17.3413 3.74011V14.8674L20.2315 11.6882" stroke="black" stroke-width="1.5" stroke-linecap="round" stroke-linejoin="round"/>
<path d="M17.3414 14.8675L14.4512 11.6882" stroke="black" stroke-width="1.5" stroke-linecap="round" stroke-linejoin="round"/>
<path d="M2.86133 21.226H9.23425C9.78339 21.226 10.2747 21.5598 10.5204 22.1002L12.2112 25.8199C12.7025 26.9009 13.6996 27.5844 14.7979 27.5844H19.8991C20.9974 27.5844 21.9945 26.9009 22.4859 25.8199L24.1766 22.1002C24.4223 21.5598 24.9281 21.226 25.4628 21.226H31.7635" stroke="black" stroke-width="1.5" stroke-linecap="round" stroke-linejoin="round"/>
<path d="M10.1157 7.12598C4.99999 7.95258 2.89014 11.259 2.89014 18.0466V24.4051C2.89014 32.3532 5.78035 35.5324 13.0059 35.5324H21.6765C28.9021 35.5324 31.7923 32.3532 31.7923 24.4051V18.0466C31.7923 11.259 29.6824 7.95258 24.5667 7.12598" stroke="black" stroke-width="1.5" stroke-linecap="round" stroke-linejoin="round"/>
</svg>
