<svg width="19" height="20" viewBox="0 0 19 20" fill="none" xmlns="http://www.w3.org/2000/svg">
<path d="M15.0754 14.1709C14.2714 14.1709 13.6683 14.4724 13.0653 14.9749L5.92965 10.7538C6.03015 10.5528 6.03015 10.2513 6.03015 10.0503C6.03015 9.84925 6.03015 9.54774 5.92965 9.34673L13.0653 5.22613C13.5678 5.72864 14.2714 6.03015 15.0754 6.03015C16.7839 6.03015 18.0905 4.72362 18.0905 3.01508C18.0905 1.30653 16.7839 0 15.0754 0C13.3668 0 12.0603 1.30653 12.0603 3.01508C12.0603 3.21608 12.0603 3.51759 12.1608 3.71859L5.02513 7.8392C4.52261 7.33668 3.8191 7.03518 3.01508 7.03518C1.30653 7.03518 0 8.34171 0 10.0503C0 11.7588 1.30653 13.0653 3.01508 13.0653C3.8191 13.0653 4.52261 12.7638 5.02513 12.2613L12.1608 16.4824C12.0603 16.6834 12.0603 16.8844 12.0603 17.0854C12.0603 18.6935 13.3668 20 14.9749 20C16.5829 20 17.8894 18.6935 17.8894 17.0854C17.8894 15.4774 16.6834 14.1709 15.0754 14.1709ZM15.0754 2.01005C15.5779 2.01005 16.0804 2.41206 16.0804 3.01508C16.0804 3.61809 15.5779 4.0201 15.0754 4.0201C14.5729 4.0201 14.0704 3.61809 14.0704 3.01508C14.0704 2.41206 14.5729 2.01005 15.0754 2.01005ZM3.01508 11.0553C2.41206 11.0553 2.01005 10.6533 2.01005 10.0503C2.01005 9.44724 2.41206 9.04523 3.01508 9.04523C3.61809 9.04523 4.0201 9.44724 4.0201 10.0503C4.0201 10.6533 3.61809 11.0553 3.01508 11.0553ZM15.0754 18.0905C14.5729 18.0905 14.0704 17.5879 14.0704 17.0854C14.0704 16.5829 14.5729 16.0804 15.0754 16.0804C15.5779 16.0804 16.0804 16.5829 16.0804 17.0854C16.0804 17.5879 15.5779 18.0905 15.0754 18.0905Z" fill="#F8C303"/>
</svg>
