<svg width="22" height="25" viewBox="0 0 22 25" fill="none" xmlns="http://www.w3.org/2000/svg">
<path d="M14.75 18.8889H21L19.2437 17.0936C19.0079 16.8525 18.8208 16.5662 18.6932 16.2511C18.5656 15.9361 18.4999 15.5984 18.5 15.2574V11.2222C18.5002 9.63642 18.0195 8.08955 17.124 6.79458C16.2286 5.49961 14.9625 4.52023 13.5 3.99128V3.55556C13.5 2.87778 13.2366 2.22776 12.7678 1.7485C12.2989 1.26925 11.663 1 11 1C10.337 1 9.70107 1.26925 9.23223 1.7485C8.76339 2.22776 8.5 2.87778 8.5 3.55556V3.99128C5.5875 5.04417 3.5 7.88467 3.5 11.2222V15.2587C3.5 15.9462 3.2325 16.6068 2.75625 17.0936L1 18.8889H7.25M14.75 18.8889H7.25M14.75 18.8889V20.1667C14.75 21.1833 14.3549 22.1584 13.6517 22.8772C12.9484 23.5961 11.9946 24 11 24C10.0054 24 9.05161 23.5961 8.34835 22.8772C7.64509 22.1584 7.25 21.1833 7.25 20.1667V18.8889" stroke="#F8C303" stroke-width="2" stroke-linecap="round" stroke-linejoin="round"/>
</svg>
