<svg width="25" height="25" viewBox="0 0 25 25" fill="none" xmlns="http://www.w3.org/2000/svg">
<path d="M3.37916 17.1249C5.05239 18.8005 7.28059 19.8064 9.64401 19.9531C12.0074 20.0997 14.3429 19.3771 16.2105 17.9212L22.6364 24.3471C22.8643 24.5673 23.1695 24.689 23.4863 24.6863C23.8031 24.6835 24.1062 24.5565 24.3302 24.3324C24.5543 24.1084 24.6814 23.8053 24.6841 23.4885C24.6869 23.1717 24.5651 22.8665 24.345 22.6386L17.919 16.2126C19.4395 14.2614 20.1583 11.8036 19.929 9.34058C19.6996 6.87754 18.5393 4.59476 16.6847 2.95779C14.8301 1.32083 12.4209 0.452976 9.94847 0.531235C7.47601 0.609493 5.12652 1.62796 3.37916 3.37894C2.4763 4.28135 1.76007 5.35281 1.27142 6.5321C0.782762 7.7114 0.53125 8.97542 0.53125 10.2519C0.53125 11.5285 0.782762 12.7925 1.27142 13.9718C1.76007 15.1511 2.4763 16.2225 3.37916 17.1249ZM5.08775 5.08994C6.28227 3.89544 7.85401 3.15207 9.53517 2.98647C11.2163 2.82087 12.9029 3.2433 14.3075 4.18179C15.7122 5.12027 16.7479 6.51674 17.2384 8.13327C17.7288 9.7498 17.6436 11.4864 16.9973 13.0471C16.3509 14.6079 15.1834 15.8962 13.6937 16.6927C12.2039 17.4892 10.4841 17.7445 8.8272 17.4151C7.17033 17.0857 5.67892 16.192 4.60707 14.8863C3.53522 13.5806 2.94925 11.9437 2.949 10.2544C2.94568 9.29443 3.13303 8.34339 3.50018 7.45644C3.86732 6.56949 4.40695 5.76427 5.08775 5.08752V5.08994Z" fill="#F8C303"/>
</svg>
