<svg width="27" height="22" viewBox="0 0 27 22" fill="none" xmlns="http://www.w3.org/2000/svg">
<path d="M8.69775 0.882812V3.38766" stroke="#1C2D57" stroke-width="1.3" stroke-miterlimit="10" stroke-linecap="round" stroke-linejoin="round"/>
<path d="M8.69775 8.39734L8.69775 13.407" stroke="#1C2D57" stroke-width="1.3" stroke-miterlimit="10" stroke-linecap="round" stroke-linejoin="round"/>
<path d="M8.69775 18.4167V20.9216" stroke="#1C2D57" stroke-width="1.3" stroke-miterlimit="10" stroke-linecap="round" stroke-linejoin="round"/>
<path d="M22.8931 10.9833C22.8931 9.22943 24.0986 7.76791 25.6054 7.32945V2.94488C25.6054 1.77566 24.7013 0.898749 23.4959 0.898749H3.00355C1.79812 0.752596 0.894043 1.62951 0.894043 2.79873V7.1833C2.55151 7.76791 3.60626 9.08328 3.60626 10.8371C3.60626 12.5909 2.40083 14.0525 0.894043 14.4909V18.8755C0.894043 20.0447 1.79812 20.9216 3.00355 20.9216H23.4959C24.7013 20.9216 25.6054 20.0447 25.6054 18.8755V14.4909C23.9479 14.0525 22.8931 12.5909 22.8931 10.9833Z" stroke="#1C2D57" stroke-width="1.3" stroke-miterlimit="10" stroke-linecap="round" stroke-linejoin="round"/>
</svg>
