<svg width="20" height="18" viewBox="0 0 20 18" fill="none" xmlns="http://www.w3.org/2000/svg">
<path fill-rule="evenodd" clip-rule="evenodd" d="M14.5759 1C12.6616 1 11.131 2.45471 10.1798 3.41785C9.2087 2.4627 7.65009 1 5.73979 1C2.94227 1 1 2.97025 1 5.79574C1 11.9303 9.03686 16.9858 9.39254 17.1896C9.78035 17.4309 10.2716 17.4309 10.6594 17.1896C10.9991 16.9778 19 11.8983 19 5.79973C18.972 2.83837 17.2895 1 14.5759 1ZM9.98002 16.1865C9.98002 16.1865 2.17096 11.3508 2.17096 5.79574C2.17096 3.64964 3.56572 2.19893 5.71181 2.19893C7.8579 2.19893 9.76421 4.99645 10.1639 4.99645C10.5635 4.99645 12.4139 2.19893 14.5599 2.19893C16.706 2.19893 17.7571 3.64964 17.7571 5.79574C17.7731 11.2988 9.98002 16.1865 9.98002 16.1865Z" fill="#F8C303"/>
<path d="M10.1798 3.41785L9.82923 3.77433L10.185 4.12422L10.5356 3.76918L10.1798 3.41785ZM9.39254 17.1896L9.65671 16.7651L9.649 16.7603L9.64113 16.7558L9.39254 17.1896ZM10.6594 17.1896L10.9236 17.6141L10.924 17.6139L10.6594 17.1896ZM19 5.79973H19.5L19.5 5.79501L19 5.79973ZM9.98002 16.1865L9.71678 16.6116L9.9817 16.7756L10.2457 16.6101L9.98002 16.1865ZM17.7571 5.79574H17.2571L17.2571 5.79719L17.7571 5.79574ZM14.5759 0.5C13.4892 0.5 12.5331 0.913031 11.7432 1.42918C10.9547 1.94441 10.3028 2.58181 9.82408 3.06652L10.5356 3.76918C11.0081 3.29075 11.5971 2.71922 12.2902 2.26632C12.982 1.81432 13.7483 1.5 14.5759 1.5V0.5ZM10.5304 3.06138C10.0433 2.58223 9.37974 1.94597 8.58358 1.43093C7.78642 0.915246 6.82473 0.5 5.73979 0.5V1.5C6.56515 1.5 7.33791 1.8161 8.04042 2.27056C8.74393 2.72566 9.34526 3.29832 9.82923 3.77433L10.5304 3.06138ZM5.73979 0.5C4.22011 0.5 2.90288 1.03738 1.96507 1.98697C1.02775 2.93607 0.5 4.26586 0.5 5.79574H1.5C1.5 4.50013 1.94339 3.43205 2.67658 2.68965C3.40929 1.94774 4.46195 1.5 5.73979 1.5V0.5ZM0.5 5.79574C0.5 9.07088 2.6337 11.9921 4.70912 14.07C6.8 16.1635 8.93558 17.504 9.14395 17.6234L9.64113 16.7558C9.49382 16.6714 7.43313 15.3823 5.41666 13.3634C3.38473 11.329 1.5 8.65514 1.5 5.79574H0.5ZM9.12837 17.6141C9.67792 17.9561 10.374 17.9561 10.9236 17.6141L10.3952 16.7651C10.1692 16.9058 9.88279 16.9058 9.65671 16.7651L9.12837 17.6141ZM10.924 17.6139C11.109 17.4985 13.2306 16.1521 15.312 14.0544C17.3757 11.9746 19.5 9.05644 19.5 5.79973H18.5C18.5 8.64161 16.6239 11.3125 14.6022 13.35C12.5982 15.3697 10.5495 16.6689 10.3949 16.7653L10.924 17.6139ZM19.5 5.79501C19.4851 4.22294 19.0298 2.893 18.163 1.95084C17.2914 1.00328 16.051 0.5 14.5759 0.5V1.5C15.8145 1.5 16.7721 1.9159 17.4271 2.62787C18.087 3.34523 18.4869 4.41516 18.5 5.80446L19.5 5.79501ZM9.98002 16.1865C10.2433 15.7614 10.2433 15.7615 10.2434 15.7615C10.2434 15.7615 10.2434 15.7615 10.2433 15.7614C10.2432 15.7614 10.243 15.7613 10.2427 15.7611C10.242 15.7606 10.2409 15.7599 10.2393 15.759C10.2362 15.757 10.2311 15.7538 10.2244 15.7496C10.2108 15.741 10.1901 15.7278 10.1627 15.7103C10.108 15.6751 10.0268 15.6222 9.9228 15.5525C9.71475 15.4131 9.41596 15.2068 9.0567 14.9418C8.33732 14.411 7.37992 13.6477 6.42452 12.7163C4.48705 10.8274 2.67096 8.3561 2.67096 5.79574H1.67096C1.67096 8.79044 3.7594 11.5146 5.72645 13.4323C6.72332 14.4041 7.71819 15.1969 8.463 15.7465C8.83585 16.0216 9.14714 16.2365 9.36615 16.3832C9.47568 16.4566 9.56221 16.513 9.62191 16.5514C9.65176 16.5706 9.67491 16.5853 9.69088 16.5954C9.69887 16.6004 9.70506 16.6043 9.70939 16.607C9.71156 16.6084 9.71327 16.6094 9.7145 16.6102C9.71512 16.6106 9.71562 16.6109 9.716 16.6111C9.71619 16.6112 9.71638 16.6114 9.71648 16.6114C9.71664 16.6115 9.71678 16.6116 9.98002 16.1865ZM2.67096 5.79574C2.67096 4.83244 2.98215 4.06567 3.49409 3.54212C4.00483 3.01981 4.75488 2.69893 5.71181 2.69893V1.69893C4.52265 1.69893 3.50228 2.10341 2.77911 2.84298C2.05715 3.58131 1.67096 4.61294 1.67096 5.79574H2.67096ZM5.71181 2.69893C6.58527 2.69893 7.4752 3.28032 8.26245 3.97306C8.64691 4.31137 8.97429 4.64566 9.25201 4.91698C9.38563 5.04754 9.51645 5.17201 9.63138 5.26498C9.68869 5.31134 9.75531 5.36082 9.82651 5.40086C9.88625 5.43445 10.0088 5.49645 10.1639 5.49645V4.49645C10.2222 4.49645 10.2647 4.50876 10.2846 4.5156C10.2956 4.51938 10.3037 4.52288 10.3085 4.52512C10.3134 4.52739 10.3162 4.52893 10.3166 4.5292C10.3172 4.52951 10.3125 4.52686 10.3018 4.5193C10.2914 4.51193 10.2777 4.50157 10.2603 4.4875C10.1861 4.42748 10.0856 4.3334 9.95083 4.20169C9.69165 3.94848 9.33338 3.5834 8.92305 3.22232C8.12072 2.51631 6.98444 1.69893 5.71181 1.69893V2.69893ZM10.1639 5.49645C10.3197 5.49645 10.4424 5.43392 10.5027 5.39966C10.574 5.3591 10.6403 5.30907 10.697 5.26246C10.8107 5.16899 10.9395 5.04406 11.0705 4.91352C11.343 4.64192 11.6633 4.30809 12.0406 3.97013C12.8128 3.27841 13.6884 2.69893 14.5599 2.69893V1.69893C13.2854 1.69893 12.1627 2.51822 11.3734 3.22525C10.9699 3.58667 10.6185 3.95222 10.3646 4.20515C10.2324 4.33688 10.1343 4.4305 10.0619 4.49003C10.045 4.50395 10.0317 4.5141 10.0218 4.52126C10.0115 4.52861 10.0073 4.53098 10.0083 4.5304C10.0087 4.53019 10.0205 4.52337 10.0419 4.51594C10.0625 4.50883 10.1053 4.49645 10.1639 4.49645V5.49645ZM14.5599 2.69893C15.5122 2.69893 16.1607 3.0154 16.5808 3.51452C17.012 4.02689 17.2571 4.79706 17.2571 5.79574H18.2571C18.2571 4.64833 17.9767 3.62009 17.3459 2.87059C16.7039 2.10783 15.7538 1.69893 14.5599 1.69893V2.69893ZM17.2571 5.79719C17.2645 8.33083 15.4571 10.8014 13.5244 12.6979C12.5717 13.6327 11.6165 14.401 10.8987 14.9359C10.5402 15.203 10.242 15.4111 10.0343 15.5518C9.93053 15.6222 9.84943 15.6757 9.79482 15.7112C9.76751 15.729 9.74684 15.7422 9.73327 15.7509C9.72648 15.7552 9.72147 15.7584 9.7183 15.7604C9.71672 15.7614 9.71559 15.7621 9.71493 15.7626C9.7146 15.7628 9.71439 15.7629 9.71429 15.763C9.71424 15.763 9.71426 15.763 9.71423 15.763C9.71428 15.763 9.71435 15.7629 9.98002 16.1865C10.2457 16.6101 10.2458 16.61 10.246 16.6099C10.2461 16.6098 10.2463 16.6097 10.2465 16.6096C10.2468 16.6094 10.2473 16.609 10.2479 16.6087C10.2492 16.6079 10.2509 16.6068 10.253 16.6055C10.2573 16.6027 10.2635 16.5988 10.2715 16.5937C10.2874 16.5836 10.3105 16.5687 10.3403 16.5493C10.3998 16.5106 10.4861 16.4537 10.5954 16.3796C10.8138 16.2316 11.1243 16.0148 11.4962 15.7378C12.239 15.1842 13.2312 14.3866 14.2247 13.4117C16.1846 11.4886 18.2657 8.76375 18.2571 5.79428L17.2571 5.79719Z" fill="#F8C303"/>
</svg>
